<?xml version="1.0" encoding="utf-8"?>
<!-- Generator: Adobe Illustrator 28.3.0, SVG Export Plug-In . SVG Version: 6.00 Build 0)  -->
<svg version="1.1" id="Layer_1" xmlns="http://www.w3.org/2000/svg" xmlns:xlink="http://www.w3.org/1999/xlink" x="0px" y="0px"
	 viewBox="0 0 256 256" style="enable-background:new 0 0 256 256;" xml:space="preserve">
<style type="text/css">
	.st0{fill:#282828;}
	.st1{fill:#FFFFFF;}
</style>
<path class="st0" d="M256,128c0,70.7-57.31,128-128,128c-16.78,0-32.8-3.23-47.49-9.1c-12.2-4.87-23.47-11.57-33.48-19.76
	C18.32,203.67,0,167.98,0,128C0,59.27,54.18,3.18,122.16,0.13C124.1,0.04,126.04,0,128,0c9.49,0,18.73,1.03,27.63,2.99
	C213.04,15.63,256,66.8,256,128z"/>
<g>
	<path class="st1" d="M128,0h-5.84v131.15l1.21,15.91L80.84,61.99H47.03v165.15c10.01,8.19,21.28,14.89,33.48,19.76V144.08
		l-0.89-18.34l41.65,83.74h34.36V2.99C146.73,1.03,137.49,0,128,0z"/>
</g>
<g>
	<path class="st1" d="M180.66,81.84l1.62-20.19c5.32-1.77,10.42-2.66,15.28-2.66c9.41,0,16.97,2.93,22.68,8.79
		c5.71,5.83,8.56,12.54,8.56,20.14c0,6.6-2.33,12.61-7,18.05c-4.67,5.44-13.77,9.62-27.31,12.56c-3.28,0.77-5.38,1.68-6.31,2.72
		V103.6c10.68-2.43,16.03-7.39,16.03-14.87c0-3.01-1.08-5.77-3.24-8.27c-2.16-2.55-5.29-3.82-9.37-3.82c-2.28,0-4.24,0.4-5.9,1.21
		C184.08,78.66,182.4,79.99,180.66,81.84z M182,139.36c0-3.78,1.21-6.89,3.65-9.32c2.43-2.43,5.48-3.65,9.14-3.65
		c3.51,0,6.5,1.27,8.97,3.82c2.51,2.51,3.76,5.52,3.76,9.03c0,3.97-1.23,7.12-3.7,9.43c-2.43,2.28-5.46,3.41-9.08,3.41
		c-3.55,0-6.56-1.2-9.03-3.59C183.23,146.11,182,143.06,182,139.36z"/>
</g>
</svg>
