<?xml version="1.0" encoding="utf-8"?>
<!-- Generator: Adobe Illustrator 28.3.0, SVG Export Plug-In . SVG Version: 6.00 Build 0)  -->
<svg version="1.1" id="Layer_1" xmlns="http://www.w3.org/2000/svg" xmlns:xlink="http://www.w3.org/1999/xlink" x="0px" y="0px"
	 viewBox="0 0 245.1 239.1" style="enable-background:new 0 0 245.1 239.1;" xml:space="preserve">
<style type="text/css">
	.st0{fill:#17171A;}
	.st1{display:none;fill:none;stroke:#17171A;stroke-width:2;stroke-miterlimit:10;}
	.st2{fill:none;}
</style>
<g id="_x31_">
</g>
<path class="st0" d="M184.4,178.1h-61.8h-0.1H60.7c-15.3,0-27.6,12.4-27.6,27.6v36.2h89.4h0.1h89.4v-36.2
	C212,190.5,199.7,178.1,184.4,178.1z"/>
<path class="st0" d="M229.9,9.1c-4.2,0-7.6,3.4-7.6,7.6c0,1,0.2,2,0.6,2.9l-40.9,60.9c-3.7-1.9-7.9-3-12.4-3h-46.9h-0.1H75.6
	c-4.5,0-8.7,1.1-12.4,3L22.3,19.6c0.4-0.9,0.6-1.9,0.6-2.9c0-4.2-3.4-7.6-7.6-7.6s-7.6,3.4-7.6,7.6s3.4,7.6,7.6,7.6
	c0.6,0,1.2-0.1,1.7-0.2l40.5,60.2c-5.8,5.1-9.5,12.5-9.5,20.8v35.9c0,15.3,12.4,27.6,27.7,27.6h46.9h0.1h46.9
	c15.3,0,27.6-12.4,27.6-27.6v-35.9c0-8.3-3.7-15.8-9.5-20.8l40.5-60.2c0.6,0.1,1.1,0.2,1.7,0.2c4.2,0,7.6-3.4,7.6-7.6
	S234.1,9.1,229.9,9.1z M94.9,138.6c-7,0-12.7-5.7-12.7-12.7c0-7,5.7-12.7,12.7-12.7s12.7,5.7,12.7,12.7
	C107.6,132.9,101.9,138.6,94.9,138.6z M150.2,138.6c-7,0-12.7-5.7-12.7-12.7c0-7,5.7-12.7,12.7-12.7s12.7,5.7,12.7,12.7
	C162.9,132.9,157.2,138.6,150.2,138.6z"/>
<path class="st1" d="M15.5,13.4c7.1,0,7.1,6,14.3,6c7.1,0,7.1-6,14.3-6s7.1,6,14.3,6c7.1,0,7.1-6,14.3-6c7.1,0,7.1,6,14.3,6
	s7.1-6,14.3-6s7.1,6,14.3,6c7.1,0,7.1-6,14.3-6c7.1,0,7.1,6,14.3,6s7.1-6,14.3-6s7.1,6,14.3,6c7.1,0,7.1-6,14.3-6s7.1,6,14.3,6
	s7.1-6,14.3-6s7.1,6,14.3,6"/>
<path class="st2" d="M152.8,56.4H92.4c-5.4,0-9.8-4.4-9.8-9.8v-60.4c0-5.4,4.4-9.8,9.8-9.8h60.4c5.4,0,9.8,4.4,9.8,9.8v60.4
	C162.6,52,158.2,56.4,152.8,56.4z"/>
</svg>
