<?xml version="1.0" encoding="utf-8"?>
<!-- Generator: Adobe Illustrator 28.3.0, SVG Export Plug-In . SVG Version: 6.00 Build 0)  -->
<svg version="1.1" id="Layer_1" xmlns="http://www.w3.org/2000/svg" xmlns:xlink="http://www.w3.org/1999/xlink" x="0px" y="0px"
	 viewBox="0 0 229.83 230" style="enable-background:new 0 0 229.83 230;" xml:space="preserve">
<style type="text/css">
	.st0{fill:#17171A;}
	.st1{fill:none;stroke:#17171A;stroke-width:2;stroke-miterlimit:10;}
	.st2{fill:none;}
</style>
<g id="_x31_">
</g>
<g id="_x32_">
	<path class="st0" d="M176.75,169h-61.8h-0.06h-61.8c-15.27,0-27.65,12.38-27.65,27.65v36.18h89.45h0.06h89.45v-36.18
		C204.39,181.38,192.01,169,176.75,169z"/>
	<path class="st0" d="M222.22,0c-4.2,0-7.61,3.41-7.61,7.61c0,1.04,0.21,2.02,0.58,2.92L174.28,71.4c-3.73-1.88-7.94-2.96-12.4-2.96
		h-46.94h-0.06H67.94c-4.47,0-8.67,1.08-12.4,2.96L14.63,10.53c0.38-0.9,0.58-1.88,0.58-2.92C15.21,3.41,11.8,0,7.6,0
		s-7.61,3.41-7.61,7.61s3.41,7.61,7.61,7.61c0.59,0,1.16-0.07,1.71-0.2l40.48,60.23c-5.81,5.07-9.5,12.51-9.5,20.83v35.94
		c0,15.27,12.38,27.65,27.65,27.65h46.94h0.06h46.94c15.27,0,27.65-12.38,27.65-27.65V96.08c0-8.32-3.69-15.76-9.5-20.83
		l40.48-60.23c0.55,0.13,1.12,0.2,1.71,0.2c4.2,0,7.61-3.41,7.61-7.61C229.83,3.41,226.43,0,222.22,0z M87.26,129.5
		c-7,0-12.68-5.68-12.68-12.68c0-7,5.68-12.68,12.68-12.68s12.68,5.68,12.68,12.68S94.26,129.5,87.26,129.5z M142.57,129.5
		c-7,0-12.68-5.68-12.68-12.68c0-7,5.68-12.68,12.68-12.68s12.68,5.68,12.68,12.68S149.57,129.5,142.57,129.5z"/>
	<path class="st1" d="M7.84,4.26c7.14,0,7.14,6,14.27,6c7.14,0,7.14-6,14.28-6s7.14,6,14.27,6c7.14,0,7.14-6,14.27-6
		c7.14,0,7.14,6,14.28,6s7.14-6,14.28-6s7.14,6,14.27,6c7.14,0,7.14-6,14.28-6s7.14,6,14.28,6s7.14-6,14.28-6s7.14,6,14.27,6
		c7.14,0,7.14-6,14.28-6s7.14,6,14.28,6s7.14-6,14.28-6s7.14,6,14.28,6"/>
	<path class="st2" d="M145.1,47.26H84.73c-5.42,0-9.82-4.39-9.82-9.82v-60.36c0-5.42,4.39-9.82,9.82-9.82h60.37
		c5.42,0,9.82,4.39,9.82,9.82v60.37C154.92,42.87,150.52,47.26,145.1,47.26z"/>
</g>
</svg>
